<?xml version="1.0" encoding="utf-8"?>
<!-- Generator: Adobe Illustrator 16.0.0, SVG Export Plug-In . SVG Version: 6.00 Build 0)  -->
<!DOCTYPE svg PUBLIC "-//W3C//DTD SVG 1.1//EN" "http://www.w3.org/Graphics/SVG/1.1/DTD/svg11.dtd">
<svg version="1.1" id="Layer_1" xmlns="http://www.w3.org/2000/svg" xmlns:xlink="http://www.w3.org/1999/xlink" x="0px" y="0px"
	 width="300px" height="27px" viewBox="0 0 300 27" enable-background="new 0 0 300 27" xml:space="preserve">
<g>
	<path fill="#010202" d="M276.279,194.573h-6.984v-17.265h6.72c3.199,0,5.212,1.819,5.212,4.728c0,1.867-1.164,3.201-2.328,3.662
		c1.333,0.536,2.595,1.817,2.595,4.001C281.493,192.877,279.335,194.573,276.279,194.573z M275.794,179.66h-3.876v4.948h3.876
		c1.673,0,2.812-0.875,2.812-2.475C278.605,180.533,277.467,179.66,275.794,179.66z M276.037,186.958h-4.121v5.26h4.121
		c1.818,0,2.836-1.119,2.836-2.644C278.873,188.051,277.854,186.958,276.037,186.958z"/>
	<path fill="#010202" d="M291.604,185.165c-0.559-0.557-0.994-0.826-1.843-0.826c-1.335,0-2.45,1.065-2.45,2.766v7.467h-2.473
		v-12.294h2.424v1.333c0.631-0.872,1.893-1.478,3.275-1.478c1.188,0,2.086,0.316,2.935,1.165L291.604,185.165z"/>
	<path fill="#010202" d="M302.709,193.264c-0.801,0.822-2.012,1.453-3.685,1.453c-1.019,0-1.843-0.24-2.521-0.604l-0.288,0.488
		h-1.672l0.797-1.361c-1.165-1.21-1.433-2.766-1.433-4.825c0-2.057,0.293-3.613,1.456-4.825c0.802-0.824,1.986-1.455,3.661-1.455
		c1.018,0,1.865,0.241,2.547,0.606l0.264-0.461h1.674l-0.8,1.31c1.165,1.211,1.458,2.768,1.458,4.825
		C304.163,190.5,303.873,192.051,302.709,193.264z M299.022,184.339c-0.726,0-1.334,0.242-1.794,0.704
		c-0.748,0.75-0.847,2.037-0.847,3.369c0,0.971,0.048,1.918,0.364,2.644l3.734-6.304
		C300.064,184.484,299.58,184.339,299.022,184.339z M301.327,185.772l-3.735,6.301c0.387,0.267,0.873,0.437,1.431,0.437
		c0.728,0,1.357-0.267,1.819-0.728c0.75-0.75,0.85-2.037,0.85-3.37C301.689,187.442,301.641,186.499,301.327,185.772z"/>
	<path fill="#010202" d="M314.76,194.573v-7.494c0-1.915-1.09-2.739-2.473-2.739s-2.547,0.849-2.547,2.739v7.494h-2.474V182.28
		h2.427v1.237c0.848-0.921,2.037-1.384,3.273-1.384c1.261,0,2.303,0.413,3.028,1.116c0.946,0.922,1.237,2.085,1.237,3.468v7.854
		L314.76,194.573L314.76,194.573z"/>
	<path fill="#010202" d="M328.291,194.573v-7.494c0-1.915-1.094-2.739-2.473-2.739c-1.383,0-2.547,0.849-2.547,2.739v7.494h-2.473
		V182.28h2.424v1.237c0.85-0.921,2.039-1.384,3.275-1.384c1.262,0,2.304,0.413,3.029,1.116c0.945,0.922,1.238,2.085,1.238,3.468
		v7.854L328.291,194.573L328.291,194.573z"/>
	<path fill="#010202" d="M342.548,193.264c-0.802,0.822-2.014,1.453-3.684,1.453c-1.019,0-1.845-0.24-2.522-0.604l-0.291,0.488
		h-1.67l0.797-1.361c-1.163-1.21-1.43-2.766-1.43-4.825c0-2.057,0.289-3.613,1.453-4.825c0.803-0.824,1.986-1.455,3.66-1.455
		c1.02,0,1.867,0.241,2.549,0.606l0.263-0.461h1.67l-0.795,1.31c1.161,1.211,1.453,2.768,1.453,4.825
		C344.001,190.5,343.709,192.051,342.548,193.264z M338.861,184.339c-0.729,0-1.334,0.242-1.795,0.704
		c-0.75,0.75-0.849,2.037-0.849,3.369c0,0.971,0.049,1.918,0.366,2.644l3.733-6.304C339.906,184.484,339.42,184.339,338.861,184.339
		z M341.163,185.772l-3.733,6.301c0.387,0.267,0.873,0.437,1.428,0.437c0.73,0,1.359-0.267,1.819-0.728
		c0.753-0.75,0.849-2.037,0.849-3.37C341.529,187.442,341.48,186.499,341.163,185.772z"/>
	<path fill="#010202" d="M350.961,197.021c-0.239,0.68-0.533,1.164-0.895,1.531c-0.682,0.677-1.579,0.897-2.523,0.897h-0.994v-2.236
		h0.629c1.042,0,1.407-0.313,1.77-1.309l0.678-1.916l-4.291-11.712h2.619l2.934,8.656l2.862-8.656h2.643L350.961,197.021z"/>
	<path fill="#010202" d="M362.189,194.716c-2.012,0-3.71-0.338-5.168-1.77l1.625-1.624c0.996,1.016,2.328,1.285,3.543,1.285
		c1.501,0,2.69-0.536,2.69-1.699c0-0.824-0.459-1.357-1.649-1.457l-1.964-0.167c-2.306-0.192-3.636-1.24-3.636-3.397
		c0-2.399,2.057-3.758,4.631-3.758c1.842,0,3.418,0.388,4.559,1.383l-1.554,1.576c-0.774-0.655-1.868-0.897-3.03-0.897
		c-1.477,0-2.23,0.656-2.23,1.58c0,0.727,0.39,1.281,1.697,1.402l1.938,0.17c2.304,0.193,3.663,1.284,3.663,3.466
		C367.305,193.382,365.123,194.716,362.189,194.716z"/>
	<path fill="#010202" d="M377.486,194.573v-1.236c-0.849,0.922-2.038,1.38-3.274,1.38c-1.261,0-2.303-0.409-3.029-1.114
		c-0.945-0.918-1.236-2.086-1.236-3.466v-7.858h2.473v7.491c0,1.917,1.088,2.741,2.473,2.741c1.384,0,2.547-0.847,2.547-2.741
		v-7.491h2.473v12.293H377.486z"/>
	<path fill="#010202" d="M391.09,194.573v-7.494c0-1.915-1.089-2.739-2.474-2.739c-1.382,0-2.546,0.849-2.546,2.739v7.494h-2.472
		V182.28h2.425v1.237c0.852-0.921,2.039-1.384,3.272-1.384c1.264,0,2.305,0.413,3.03,1.116c0.945,0.922,1.237,2.085,1.237,3.468
		v7.854L391.09,194.573L391.09,194.573z"/>
	<path fill="#010202" d="M404.184,194.573v-1.309c-0.923,1.115-1.916,1.453-3.247,1.453c-1.237,0-2.329-0.409-3.009-1.089
		c-1.238-1.234-1.384-3.346-1.384-5.213c0-1.865,0.146-3.951,1.384-5.187c0.68-0.679,1.745-1.091,2.98-1.091
		c1.311,0,2.327,0.315,3.225,1.383v-6.208h2.477v17.262H404.184L404.184,194.573z M401.59,184.339c-2.232,0-2.574,1.893-2.574,4.073
		c0,2.182,0.342,4.098,2.574,4.098c2.229,0,2.547-1.919,2.547-4.098S403.818,184.339,401.59,184.339z"/>
	<path fill="#010202" d="M417.06,185.165c-0.556-0.557-0.996-0.826-1.847-0.826c-1.333,0-2.444,1.065-2.444,2.766v7.467h-2.474
		v-12.294h2.429v1.333c0.627-0.872,1.889-1.478,3.269-1.478c1.191,0,2.091,0.316,2.938,1.165L417.06,185.165z"/>
	<path fill="#010202" d="M421.764,189.14c0,2.109,1.112,3.444,3.125,3.444c1.388,0,2.113-0.389,2.983-1.263l1.576,1.475
		c-1.263,1.267-2.446,1.919-4.605,1.919c-3.079,0-5.528-1.624-5.528-6.304c0-3.976,2.062-6.28,5.211-6.28
		c3.299,0,5.216,2.426,5.216,5.915v1.092L421.764,189.14L421.764,189.14z M426.954,185.747c-0.391-0.925-1.266-1.554-2.429-1.554
		s-2.061,0.629-2.449,1.554c-0.239,0.555-0.287,0.92-0.311,1.67h5.526C427.267,186.667,427.195,186.304,426.954,185.747z"/>
	<path fill="#010202" d="M436.895,199.689c-1.866,0-3.058-0.434-4.344-1.625l1.579-1.577c0.776,0.727,1.456,1.091,2.664,1.091
		c2.088,0,2.888-1.478,2.888-3.127v-1.578c-0.896,1.069-1.914,1.405-3.173,1.405c-1.236,0-2.252-0.411-2.937-1.092
		c-1.189-1.188-1.38-2.905-1.38-4.989c0-2.089,0.19-3.812,1.38-4.997c0.685-0.679,1.723-1.066,2.96-1.066
		c1.311,0,2.31,0.34,3.226,1.455v-1.309h2.397v12.223C442.153,197.506,440.165,199.689,436.895,199.689z M437.187,184.339
		c-2.232,0-2.522,1.917-2.522,3.856c0,1.941,0.293,3.855,2.522,3.855c2.228,0,2.495-1.914,2.495-3.855
		C439.679,186.256,439.414,184.339,437.187,184.339z"/>
	<path fill="#010202" d="M445.768,179.855v-2.618h2.619v2.618H445.768z M445.842,194.573V182.28h2.472v12.293H445.842z"/>
	<path fill="#010202" d="M455.973,194.716c-2.011,0-3.709-0.338-5.165-1.77l1.624-1.624c0.996,1.016,2.33,1.285,3.541,1.285
		c1.507,0,2.693-0.536,2.693-1.699c0-0.824-0.461-1.357-1.646-1.457l-1.965-0.167c-2.308-0.192-3.639-1.24-3.639-3.397
		c0-2.399,2.06-3.758,4.633-3.758c1.844,0,3.42,0.388,4.56,1.383l-1.553,1.576c-0.776-0.655-1.866-0.897-3.032-0.897
		c-1.476,0-2.229,0.656-2.229,1.58c0,0.727,0.387,1.281,1.695,1.402l1.942,0.17c2.304,0.193,3.661,1.284,3.661,3.466
		C461.093,193.382,458.908,194.716,455.973,194.716z"/>
	<path fill="#010202" d="M467.275,194.573c-2.304,0-3.37-1.65-3.37-3.419v-6.767h-1.408v-1.89h1.403v-3.734h2.477v3.734h2.377v1.89
		h-2.377v6.646c0,0.896,0.432,1.429,1.356,1.429h1.018v2.111H467.275z"/>
	<path fill="#010202" d="M478.427,185.165c-0.555-0.557-0.994-0.826-1.842-0.826c-1.334,0-2.447,1.065-2.447,2.766v7.467h-2.472
		v-12.294h2.424v1.333c0.629-0.872,1.895-1.478,3.273-1.478c1.188,0,2.087,0.316,2.935,1.165L478.427,185.165z"/>
	<path fill="#010202" d="M483.134,189.14c0,2.109,1.112,3.444,3.126,3.444c1.383,0,2.11-0.389,2.981-1.263l1.575,1.475
		c-1.263,1.267-2.446,1.919-4.607,1.919c-3.075,0-5.523-1.624-5.523-6.304c0-3.976,2.059-6.28,5.213-6.28
		c3.294,0,5.21,2.426,5.21,5.915v1.092L483.134,189.14L483.134,189.14z M488.321,185.747c-0.389-0.925-1.262-1.554-2.426-1.554
		c-1.163,0-2.062,0.629-2.445,1.554c-0.245,0.555-0.293,0.92-0.316,1.67h5.528C488.637,186.667,488.563,186.304,488.321,185.747z"/>
	<path fill="#010202" d="M501.633,194.573v-7.494c0-1.915-1.092-2.739-2.472-2.739c-1.382,0-2.549,0.849-2.549,2.739v7.494h-2.475
		V182.28h2.429v1.237c0.848-0.921,2.035-1.384,3.271-1.384c1.266,0,2.309,0.413,3.029,1.116c0.946,0.922,1.24,2.085,1.24,3.468
		v7.854L501.633,194.573L501.633,194.573z"/>
	<path fill="#010202" d="M509.488,189.14c0,2.109,1.114,3.444,3.128,3.444c1.385,0,2.11-0.389,2.983-1.263l1.576,1.475
		c-1.263,1.267-2.449,1.919-4.603,1.919c-3.085,0-5.529-1.624-5.529-6.304c0-3.976,2.058-6.28,5.211-6.28
		c3.294,0,5.214,2.426,5.214,5.915v1.092L509.488,189.14L509.488,189.14z M514.679,185.747c-0.388-0.925-1.263-1.554-2.426-1.554
		s-2.06,0.629-2.449,1.554c-0.242,0.555-0.29,0.92-0.313,1.67h5.529C514.994,186.667,514.921,186.304,514.679,185.747z"/>
</g>
<rect x="217.5" y="163.5" fill="#010202" width="10.36" height="3.453"/>
<rect x="231.316" y="163.5" fill="#010202" width="10.361" height="3.453"/>
<rect x="245.132" y="163.5" fill="#010202" width="10.362" height="3.453"/>
<rect x="217.5" y="170.407" fill="#010202" width="10.36" height="3.455"/>
<rect x="231.316" y="170.407" fill="#010202" width="10.361" height="3.455"/>
<rect x="245.132" y="170.407" fill="#010202" width="10.362" height="3.455"/>
<rect x="217.5" y="177.316" fill="#010202" width="10.36" height="3.454"/>
<rect x="231.316" y="177.316" fill="#010202" width="10.361" height="3.454"/>
<rect x="217.5" y="184.223" fill="#010202" width="10.36" height="3.453"/>
<rect x="231.316" y="184.223" fill="#010202" width="10.361" height="3.453"/>
<rect x="217.5" y="191.132" fill="#010202" width="10.36" height="3.453"/>
<rect x="231.316" y="191.132" fill="#010202" width="10.361" height="3.453"/>
<rect fill="#010202" width="7.635" height="2.544"/>
<rect x="10.181" fill="#010202" width="7.636" height="2.544"/>
<rect x="20.363" fill="#010202" width="7.636" height="2.544"/>
<rect y="5.089" fill="#010202" width="7.635" height="2.545"/>
<rect x="10.181" y="5.089" fill="#010202" width="7.636" height="2.545"/>
<rect x="20.363" y="5.089" fill="#010202" width="7.636" height="2.545"/>
<rect y="10.181" fill="#010202" width="7.635" height="2.545"/>
<rect x="10.181" y="10.181" fill="#010202" width="7.636" height="2.545"/>
<rect y="15.271" fill="#010202" width="7.635" height="2.544"/>
<rect x="10.181" y="15.271" fill="#010202" width="7.636" height="2.544"/>
<rect y="20.363" fill="#010202" width="7.635" height="2.542"/>
<rect x="10.181" y="20.363" fill="#010202" width="7.636" height="2.542"/>
<g>
	<path fill="#010202" d="M45.814,11.968h-3.398v10.666h-1.872V11.968h-3.406v-1.687h8.676V11.968z"/>
	<path fill="#010202" d="M54.845,22.633h-1.77v-5.39c0-0.642-0.164-1.123-0.491-1.442c-0.328-0.319-0.755-0.479-1.279-0.479
		c-0.525,0-0.955,0.164-1.288,0.487c-0.334,0.325-0.499,0.803-0.499,1.434v5.39h-1.771V10.281h1.771v4.446
		c0.599-0.665,1.354-0.997,2.27-0.997c0.632,0,1.181,0.134,1.644,0.403c0.462,0.267,0.815,0.645,1.054,1.131
		c0.24,0.486,0.36,1.051,0.36,1.695V22.633z"/>
	<path fill="#010202" d="M64.572,18.745h-5.711c0,0.515,0.087,0.954,0.263,1.318c0.175,0.364,0.427,0.646,0.757,0.847
		c0.332,0.201,0.739,0.3,1.225,0.3c0.485,0,0.879-0.068,1.177-0.203c0.299-0.136,0.62-0.368,0.958-0.695l1.126,1.05
		c-0.48,0.48-0.967,0.829-1.459,1.048c-0.492,0.217-1.105,0.324-1.84,0.324c-0.566,0-1.09-0.081-1.574-0.244
		c-0.483-0.165-0.903-0.424-1.26-0.781c-0.356-0.357-0.633-0.82-0.832-1.398c-0.197-0.577-0.297-1.27-0.297-2.083
		c0-0.944,0.154-1.751,0.462-2.423c0.308-0.672,0.742-1.186,1.301-1.542c0.56-0.355,1.216-0.535,1.968-0.535
		c0.769,0,1.436,0.179,2.002,0.535c0.566,0.355,0.995,0.855,1.289,1.495c0.294,0.642,0.441,1.377,0.441,2.208v0.779H64.572z
		 M62.817,17.517c-0.017-0.458-0.096-0.856-0.237-1.194c-0.142-0.34-0.364-0.61-0.666-0.815c-0.301-0.203-0.66-0.304-1.072-0.304
		c-0.407,0-0.763,0.102-1.071,0.304c-0.308,0.205-0.536,0.475-0.682,0.815c-0.081,0.18-0.132,0.34-0.158,0.479
		c-0.024,0.137-0.049,0.377-0.071,0.715H62.817z"/>
	<path fill="#010202" d="M80.024,19.143c0,0.745-0.157,1.38-0.469,1.901c-0.315,0.522-0.755,0.918-1.323,1.186
		c-0.568,0.268-1.217,0.403-1.946,0.403h-5.004V10.281h4.816c0.747,0,1.404,0.138,1.973,0.412c0.567,0.274,1.002,0.666,1.304,1.178
		c0.303,0.511,0.455,1.107,0.455,1.791c0,0.423-0.079,0.815-0.233,1.174c-0.156,0.359-0.36,0.661-0.615,0.906
		c-0.253,0.245-0.527,0.425-0.821,0.538c0.53,0.203,0.975,0.55,1.33,1.042C79.846,17.812,80.024,18.42,80.024,19.143z
		 M77.957,13.734c0-0.366-0.084-0.684-0.25-0.952c-0.167-0.267-0.401-0.469-0.704-0.608c-0.301-0.139-0.655-0.207-1.062-0.207h-2.77
		V15.5h2.77c0.622,0,1.112-0.155,1.475-0.464C77.776,14.726,77.957,14.292,77.957,13.734z M78.143,19.059
		c0-0.379-0.08-0.706-0.238-0.982c-0.159-0.278-0.391-0.495-0.699-0.653c-0.308-0.158-0.671-0.237-1.089-0.237H73.17v3.762h2.947
		c0.423,0,0.789-0.081,1.094-0.241c0.305-0.162,0.538-0.383,0.694-0.665C78.064,19.759,78.143,19.431,78.143,19.059z"/>
	<path fill="#010202" d="M88.767,14.572l-1.338,1.335c-0.204-0.209-0.399-0.358-0.584-0.45c-0.187-0.09-0.43-0.135-0.729-0.135
		c-0.316,0-0.608,0.081-0.877,0.244c-0.268,0.166-0.48,0.395-0.638,0.691c-0.16,0.297-0.239,0.642-0.239,1.037v5.339H82.59V13.84
		h1.737v0.955c0.233-0.323,0.558-0.582,0.979-0.775c0.422-0.193,0.874-0.29,1.36-0.29c0.436,0,0.819,0.063,1.147,0.191
		C88.144,14.049,88.462,14.268,88.767,14.572z"/>
	<path fill="#010202" d="M97.128,18.232c0,0.813-0.073,1.489-0.22,2.031c-0.147,0.541-0.421,1.02-0.822,1.431
		c-0.667,0.694-1.545,1.04-2.634,1.04c-0.672,0-1.274-0.142-1.804-0.431l-0.644,1.093h-1.196l1.008-1.719
		c-0.264-0.278-0.474-0.59-0.626-0.937c-0.152-0.349-0.256-0.716-0.313-1.106c-0.057-0.388-0.085-0.859-0.085-1.406
		c0-0.79,0.076-1.462,0.229-2.016c0.153-0.554,0.423-1.034,0.813-1.441c0.192-0.204,0.416-0.38,0.669-0.534
		c0.254-0.152,0.55-0.276,0.885-0.369c0.335-0.094,0.69-0.141,1.063-0.141c0.671,0,1.279,0.147,1.821,0.443l0.644-1.096h1.195
		l-1.025,1.701c0.396,0.413,0.668,0.891,0.818,1.435C97.055,16.755,97.128,17.43,97.128,18.232z M94.494,15.618
		c-0.3-0.197-0.647-0.296-1.042-0.296c-0.525,0-0.956,0.166-1.288,0.499c-0.243,0.248-0.405,0.569-0.483,0.96
		c-0.079,0.392-0.117,0.876-0.117,1.451c0,0.862,0.084,1.491,0.253,1.885L94.494,15.618z M95.358,18.234
		c0-0.864-0.087-1.491-0.263-1.887l-2.667,4.5c0.3,0.208,0.641,0.313,1.024,0.313c0.524,0,0.958-0.177,1.297-0.526
		c0.247-0.248,0.412-0.567,0.491-0.959C95.318,19.284,95.358,18.803,95.358,18.234z"/>
	<path fill="#010202" d="M106.659,22.633h-1.771v-5.356c0-0.439-0.078-0.805-0.233-1.099c-0.155-0.293-0.365-0.51-0.63-0.649
		c-0.266-0.137-0.569-0.207-0.907-0.207c-0.531,0-0.966,0.166-1.309,0.495c-0.34,0.33-0.511,0.817-0.511,1.459v5.356h-1.771V13.84
		h1.738v0.888c0.293-0.325,0.646-0.571,1.058-0.742c0.413-0.17,0.839-0.255,1.28-0.255c0.898,0,1.621,0.269,2.168,0.805
		c0.594,0.57,0.89,1.396,0.89,2.473L106.659,22.633L106.659,22.633z"/>
	<path fill="#010202" d="M116.513,22.633h-1.772v-5.356c0-0.439-0.077-0.805-0.232-1.099c-0.154-0.293-0.364-0.51-0.631-0.649
		c-0.264-0.137-0.567-0.207-0.906-0.207c-0.532,0-0.968,0.166-1.309,0.495c-0.34,0.33-0.511,0.817-0.511,1.459v5.356h-1.771V13.84
		h1.738v0.888c0.293-0.325,0.646-0.571,1.058-0.742c0.414-0.17,0.839-0.255,1.281-0.255c0.897,0,1.62,0.269,2.168,0.805
		c0.594,0.57,0.89,1.396,0.89,2.473v5.625H116.513z"/>
	<path fill="#010202" d="M126.153,18.232c0,0.813-0.073,1.489-0.219,2.031c-0.146,0.541-0.422,1.02-0.821,1.431
		c-0.666,0.694-1.544,1.04-2.635,1.04c-0.672,0-1.273-0.142-1.804-0.431l-0.644,1.093h-1.195l1.009-1.719
		c-0.266-0.278-0.475-0.59-0.626-0.937c-0.152-0.348-0.258-0.716-0.314-1.106c-0.056-0.388-0.084-0.859-0.084-1.406
		c0-0.79,0.075-1.462,0.229-2.016c0.152-0.554,0.423-1.034,0.813-1.441c0.191-0.204,0.415-0.38,0.668-0.534
		c0.255-0.152,0.549-0.276,0.886-0.369c0.336-0.094,0.691-0.141,1.063-0.141c0.672,0,1.279,0.147,1.823,0.443l0.643-1.096h1.194
		l-1.024,1.701c0.395,0.413,0.667,0.891,0.818,1.435C126.078,16.757,126.153,17.43,126.153,18.232z M123.519,15.618
		c-0.3-0.197-0.647-0.296-1.042-0.296c-0.525,0-0.955,0.166-1.288,0.499c-0.243,0.248-0.404,0.569-0.483,0.96
		c-0.08,0.392-0.119,0.876-0.119,1.451c0,0.862,0.085,1.491,0.255,1.885L123.519,15.618z M124.383,18.234
		c0-0.864-0.088-1.491-0.263-1.887l-2.668,4.5c0.3,0.208,0.64,0.313,1.024,0.313c0.526,0,0.958-0.177,1.296-0.526
		c0.25-0.248,0.414-0.567,0.492-0.959C124.344,19.284,124.383,18.803,124.383,18.234z"/>
	<path fill="#010202" d="M135.192,13.839l-3.879,10.548c-0.17,0.459-0.385,0.821-0.645,1.093c-0.435,0.429-1.036,0.644-1.804,0.644
		h-0.711v-1.61h0.449c0.367,0,0.64-0.066,0.818-0.199c0.178-0.133,0.328-0.378,0.453-0.732l0.483-1.371l-3.076-8.374h1.881
		l2.092,6.193l2.052-6.193H135.192z"/>
	<path fill="#010202" d="M143.174,19.948c0,0.599-0.156,1.105-0.467,1.524c-0.31,0.418-0.74,0.734-1.29,0.944
		c-0.548,0.212-1.185,0.317-1.907,0.317c-0.525,0-1.003-0.036-1.429-0.109c-0.427-0.073-0.826-0.2-1.196-0.381
		c-0.372-0.18-0.729-0.438-1.073-0.771l1.164-1.16c0.594,0.61,1.439,0.915,2.537,0.915c0.361,0,0.691-0.045,0.987-0.136
		c0.298-0.09,0.528-0.225,0.692-0.407c0.163-0.18,0.246-0.404,0.246-0.668c0-0.633-0.393-0.98-1.178-1.042l-1.406-0.119
		c-0.561-0.052-1.035-0.171-1.424-0.356c-0.387-0.186-0.681-0.453-0.884-0.797c-0.201-0.343-0.3-0.771-0.3-1.279
		c0-0.829,0.315-1.487,0.946-1.97c0.628-0.483,1.42-0.725,2.37-0.725c1.42,0,2.507,0.331,3.266,0.99l-1.109,1.128
		c-0.514-0.43-1.237-0.644-2.168-0.644c-0.52,0-0.917,0.101-1.19,0.303c-0.274,0.204-0.411,0.481-0.411,0.831
		c0,0.593,0.406,0.926,1.221,1l1.389,0.127c0.548,0.047,1.018,0.164,1.411,0.355c0.392,0.192,0.692,0.467,0.898,0.821
		C143.071,19,143.174,19.434,143.174,19.948z"/>
	<path fill="#010202" d="M152.366,22.633h-1.729v-0.881c-0.3,0.316-0.654,0.56-1.062,0.73c-0.41,0.168-0.838,0.253-1.285,0.253
		c-0.886,0-1.609-0.264-2.168-0.796c-0.321-0.316-0.549-0.677-0.682-1.08c-0.133-0.405-0.199-0.871-0.199-1.403V13.84h1.77v5.356
		c0,0.655,0.165,1.145,0.492,1.473c0.328,0.327,0.751,0.493,1.271,0.493c0.53,0,0.967-0.166,1.308-0.497
		c0.341-0.332,0.512-0.821,0.512-1.469V13.84h1.771V22.633z"/>
	<path fill="#010202" d="M162.312,22.633h-1.772v-5.356c0-0.439-0.076-0.805-0.231-1.099c-0.154-0.293-0.364-0.51-0.63-0.649
		c-0.267-0.137-0.568-0.207-0.906-0.207c-0.532,0-0.968,0.166-1.309,0.495c-0.342,0.33-0.512,0.817-0.512,1.459v5.356h-1.772V13.84
		h1.737v0.888c0.293-0.325,0.646-0.571,1.06-0.742c0.413-0.17,0.839-0.255,1.28-0.255c0.897,0,1.62,0.269,2.168,0.805
		c0.593,0.57,0.89,1.396,0.89,2.473v5.625H162.312z"/>
	<path fill="#010202" d="M171.816,22.633h-1.736v-0.941c-0.221,0.272-0.446,0.48-0.679,0.627c-0.23,0.147-0.479,0.253-0.745,0.319
		c-0.265,0.064-0.567,0.096-0.905,0.096c-0.436,0-0.842-0.069-1.217-0.21c-0.375-0.142-0.688-0.332-0.937-0.569
		c-0.276-0.276-0.486-0.614-0.63-1.013c-0.144-0.398-0.239-0.812-0.284-1.241c-0.046-0.429-0.068-0.921-0.068-1.473
		c0-0.553,0.022-1.044,0.068-1.469c0.045-0.426,0.141-0.837,0.284-1.233c0.144-0.395,0.354-0.732,0.63-1.008
		c0.249-0.248,0.561-0.441,0.933-0.581c0.373-0.138,0.773-0.208,1.202-0.208c0.493,0,0.923,0.074,1.293,0.222
		c0.37,0.146,0.71,0.406,1.021,0.775v-4.446h1.771L171.816,22.633L171.816,22.633z M170.046,18.232c0-0.597-0.045-1.106-0.136-1.527
		c-0.091-0.42-0.269-0.756-0.538-1.006c-0.27-0.251-0.652-0.377-1.148-0.377c-0.502,0-0.89,0.126-1.16,0.38
		c-0.271,0.255-0.452,0.588-0.541,1.006c-0.092,0.417-0.137,0.925-0.137,1.523c0,0.597,0.045,1.105,0.137,1.526
		c0.09,0.421,0.271,0.758,0.541,1.016c0.271,0.257,0.658,0.385,1.16,0.385c0.723,0,1.207-0.258,1.453-0.774
		C169.924,19.869,170.046,19.152,170.046,18.232z"/>
	<path fill="#010202" d="M188.007,22.633h-2.186l-2.601-5.193h-2.338v5.193h-1.889V10.281h4.798c0.758,0,1.43,0.155,2.015,0.463
		c0.585,0.309,1.034,0.735,1.348,1.281c0.314,0.545,0.472,1.169,0.472,1.871c0,0.847-0.228,1.556-0.683,2.124
		s-1.047,0.954-1.775,1.157L188.007,22.633z M185.753,13.912c0-0.603-0.19-1.078-0.572-1.424c-0.38-0.346-0.891-0.52-1.529-0.52
		h-2.769v3.864h2.769c0.633,0,1.142-0.173,1.526-0.517C185.562,14.972,185.753,14.504,185.753,13.912z"/>
	<path fill="#010202" d="M197.164,18.745h-5.709c0,0.515,0.086,0.954,0.262,1.318c0.176,0.364,0.428,0.646,0.759,0.847
		c0.331,0.201,0.738,0.3,1.223,0.3c0.487,0,0.88-0.068,1.178-0.203c0.3-0.136,0.619-0.368,0.958-0.695l1.127,1.05
		c-0.48,0.48-0.966,0.829-1.458,1.048c-0.493,0.217-1.105,0.324-1.842,0.324c-0.565,0-1.089-0.081-1.573-0.244
		c-0.483-0.165-0.902-0.424-1.26-0.781c-0.356-0.356-0.634-0.82-0.832-1.398c-0.197-0.577-0.296-1.27-0.296-2.083
		c0-0.944,0.153-1.751,0.46-2.423c0.31-0.672,0.743-1.186,1.302-1.542c0.561-0.355,1.217-0.535,1.969-0.535
		c0.77,0,1.436,0.179,2.002,0.535c0.565,0.355,0.993,0.855,1.289,1.495c0.294,0.642,0.44,1.377,0.44,2.208v0.779H197.164z
		 M195.411,17.517c-0.018-0.458-0.097-0.856-0.237-1.194c-0.141-0.34-0.362-0.61-0.664-0.815c-0.302-0.203-0.661-0.304-1.072-0.304
		c-0.405,0-0.764,0.102-1.071,0.304c-0.309,0.205-0.536,0.475-0.683,0.815c-0.078,0.18-0.131,0.34-0.155,0.479
		c-0.026,0.137-0.051,0.377-0.073,0.715H195.411z"/>
	<path fill="#010202" d="M206.222,22.583c0,0.723-0.151,1.362-0.453,1.918c-0.303,0.557-0.736,0.994-1.301,1.313
		c-0.565,0.319-1.236,0.479-2.01,0.479c-0.451,0-0.853-0.04-1.202-0.114c-0.35-0.077-0.68-0.201-0.986-0.374
		c-0.309-0.173-0.615-0.396-0.92-0.672l1.136-1.128c0.304,0.277,0.597,0.477,0.874,0.597c0.28,0.122,0.622,0.182,1.027,0.182
		c0.699,0,1.218-0.212,1.557-0.634c0.338-0.424,0.506-0.958,0.506-1.602v-1.127c-0.303,0.361-0.641,0.619-1.007,0.771
		c-0.367,0.152-0.789,0.229-1.269,0.229c-0.418,0-0.81-0.068-1.175-0.203c-0.367-0.137-0.675-0.329-0.924-0.576
		c-0.394-0.396-0.656-0.876-0.785-1.44c-0.13-0.565-0.195-1.276-0.195-2.136c0-0.853,0.067-1.564,0.199-2.134
		c0.133-0.571,0.393-1.052,0.781-1.441c0.244-0.243,0.545-0.43,0.906-0.563c0.359-0.132,0.763-0.199,1.208-0.199
		c0.492,0,0.918,0.077,1.282,0.231c0.364,0.152,0.706,0.425,1.028,0.817v-0.938h1.72v8.747H206.222z M204.45,18.073
		c0-0.847-0.117-1.517-0.351-2.01c-0.233-0.495-0.711-0.741-1.433-0.741c-0.727,0-1.208,0.244-1.445,0.736
		c-0.237,0.492-0.355,1.163-0.355,2.015c0,0.851,0.118,1.522,0.355,2.017c0.237,0.495,0.719,0.741,1.445,0.741
		c0.722,0,1.199-0.249,1.433-0.743C204.333,19.589,204.45,18.917,204.45,18.073z"/>
	<path fill="#010202" d="M210.855,12.103h-1.872v-1.872h1.872V12.103z M210.805,22.633h-1.771V13.84h1.771V22.633z"/>
	<path fill="#010202" d="M220.124,19.948c0,0.599-0.156,1.105-0.466,1.524c-0.311,0.418-0.741,0.734-1.29,0.944
		c-0.549,0.212-1.185,0.317-1.908,0.317c-0.526,0-1.002-0.036-1.429-0.109c-0.428-0.073-0.824-0.2-1.194-0.381
		c-0.372-0.18-0.73-0.438-1.073-0.771l1.163-1.16c0.593,0.61,1.439,0.915,2.537,0.915c0.361,0,0.691-0.045,0.987-0.136
		c0.297-0.09,0.527-0.225,0.691-0.407c0.164-0.18,0.246-0.404,0.246-0.668c0-0.633-0.394-0.98-1.179-1.042l-1.405-0.119
		c-0.562-0.052-1.035-0.171-1.423-0.356c-0.388-0.186-0.684-0.453-0.885-0.797c-0.201-0.343-0.301-0.771-0.301-1.279
		c0-0.829,0.314-1.487,0.945-1.97c0.63-0.483,1.42-0.725,2.37-0.725c1.421,0,2.509,0.331,3.267,0.99l-1.11,1.128
		c-0.514-0.43-1.236-0.644-2.169-0.644c-0.52,0-0.915,0.101-1.189,0.303c-0.273,0.204-0.411,0.481-0.411,0.831
		c0,0.593,0.406,0.926,1.221,1l1.389,0.127c0.547,0.047,1.019,0.164,1.411,0.355c0.393,0.192,0.691,0.467,0.896,0.821
		C220.021,19,220.124,19.434,220.124,19.948z"/>
	<path fill="#010202" d="M225.951,22.633h-1.06c-0.521,0-0.961-0.111-1.325-0.338c-0.364-0.227-0.637-0.523-0.817-0.894
		c-0.181-0.371-0.271-0.776-0.271-1.217v-4.838h-1.001v-1.355h1.001v-2.668h1.771v2.668h1.702v1.355h-1.702V20.1
		c0,0.683,0.323,1.024,0.974,1.024h0.729V22.633z"/>
	<path fill="#010202" d="M235.212,18.745h-5.71c0,0.515,0.087,0.954,0.263,1.318c0.176,0.364,0.427,0.646,0.759,0.847
		c0.33,0.201,0.738,0.3,1.223,0.3c0.486,0,0.878-0.068,1.178-0.203c0.3-0.136,0.619-0.368,0.958-0.695l1.127,1.05
		c-0.48,0.48-0.967,0.829-1.458,1.048c-0.492,0.217-1.105,0.324-1.842,0.324c-0.565,0-1.089-0.081-1.573-0.244
		c-0.484-0.165-0.903-0.424-1.26-0.781c-0.357-0.356-0.634-0.82-0.832-1.398c-0.198-0.577-0.297-1.27-0.297-2.083
		c0-0.944,0.154-1.751,0.461-2.423c0.31-0.672,0.743-1.186,1.302-1.542c0.56-0.355,1.217-0.535,1.969-0.535
		c0.77,0,1.435,0.179,2.001,0.535c0.565,0.355,0.994,0.855,1.29,1.495c0.294,0.642,0.44,1.377,0.44,2.208v0.779H235.212z
		 M233.458,17.517c-0.017-0.458-0.096-0.856-0.236-1.194c-0.141-0.34-0.362-0.61-0.665-0.815c-0.302-0.203-0.66-0.304-1.071-0.304
		c-0.407,0-0.764,0.102-1.072,0.304c-0.308,0.205-0.535,0.475-0.682,0.815c-0.079,0.18-0.132,0.34-0.156,0.479
		c-0.026,0.137-0.05,0.377-0.073,0.715H233.458z"/>
	<path fill="#010202" d="M243.735,14.572l-1.339,1.335c-0.205-0.209-0.398-0.358-0.585-0.45c-0.187-0.09-0.43-0.135-0.729-0.135
		c-0.316,0-0.608,0.081-0.876,0.244c-0.269,0.166-0.481,0.395-0.641,0.691c-0.157,0.297-0.236,0.642-0.236,1.037v5.339h-1.771V13.84
		h1.736v0.955c0.232-0.323,0.56-0.582,0.98-0.775c0.421-0.193,0.873-0.29,1.359-0.29c0.436,0,0.818,0.063,1.147,0.191
		C243.111,14.049,243.431,14.268,243.735,14.572z"/>
	<path fill="#010202" d="M257.95,18.936c-0.101,0.611-0.283,1.154-0.547,1.632c-0.261,0.479-0.584,0.876-0.965,1.196
		c-0.382,0.319-0.819,0.562-1.312,0.725c-0.494,0.165-1.021,0.246-1.58,0.246c-0.43,0-0.835-0.049-1.218-0.147
		c-0.379-0.099-0.745-0.25-1.097-0.454c-0.351-0.203-0.661-0.441-0.932-0.711c-0.384-0.396-0.661-0.816-0.83-1.262
		c-0.17-0.447-0.274-0.931-0.313-1.453c-0.04-0.522-0.06-1.272-0.06-2.25c0-0.751,0.01-1.347,0.029-1.787
		c0.019-0.441,0.063-0.845,0.136-1.212c0.07-0.367,0.186-0.71,0.347-1.029c0.162-0.319,0.391-0.631,0.691-0.937
		c0.428-0.429,0.918-0.755,1.466-0.979c0.546-0.223,1.141-0.334,1.779-0.334c1.157,0,2.127,0.328,2.908,0.983
		c0.782,0.657,1.28,1.595,1.496,2.817h-1.915c-0.146-0.648-0.433-1.163-0.859-1.543c-0.426-0.381-0.971-0.571-1.63-0.571
		c-0.361,0-0.703,0.064-1.021,0.194s-0.589,0.313-0.81,0.55c-0.163,0.181-0.291,0.361-0.38,0.545
		c-0.09,0.184-0.163,0.425-0.221,0.728c-0.058,0.302-0.095,0.64-0.114,1.02c-0.021,0.377-0.029,0.897-0.029,1.555
		c0,0.654,0.009,1.169,0.029,1.544c0.02,0.375,0.057,0.713,0.114,1.019c0.058,0.305,0.131,0.545,0.221,0.723
		c0.09,0.179,0.218,0.365,0.38,0.562c0.221,0.232,0.491,0.415,0.81,0.547c0.318,0.131,0.66,0.197,1.021,0.197
		c0.445,0,0.838-0.086,1.177-0.261c0.341-0.175,0.621-0.423,0.847-0.743c0.227-0.321,0.388-0.691,0.485-1.108L257.95,18.936
		L257.95,18.936z"/>
	<path fill="#010202" d="M267.244,18.745h-5.709c0,0.515,0.087,0.954,0.263,1.318c0.174,0.364,0.426,0.646,0.758,0.847
		c0.33,0.201,0.738,0.3,1.224,0.3s0.878-0.068,1.178-0.203c0.3-0.136,0.618-0.368,0.956-0.695l1.128,1.05
		c-0.48,0.48-0.967,0.829-1.459,1.048c-0.492,0.217-1.105,0.324-1.842,0.324c-0.564,0-1.089-0.081-1.573-0.244
		c-0.482-0.165-0.902-0.424-1.259-0.781c-0.357-0.356-0.633-0.82-0.831-1.398c-0.198-0.577-0.297-1.27-0.297-2.083
		c0-0.944,0.153-1.751,0.461-2.423s0.742-1.186,1.302-1.542c0.559-0.355,1.215-0.535,1.968-0.535c0.769,0,1.436,0.179,2,0.535
		c0.566,0.355,0.996,0.855,1.292,1.495c0.293,0.642,0.439,1.377,0.439,2.208v0.779H267.244z M265.49,17.517
		c-0.017-0.458-0.096-0.856-0.236-1.194c-0.141-0.34-0.363-0.61-0.664-0.815c-0.303-0.203-0.661-0.304-1.072-0.304
		c-0.407,0-0.764,0.102-1.072,0.304c-0.307,0.205-0.534,0.475-0.681,0.815c-0.079,0.18-0.132,0.34-0.157,0.479
		c-0.025,0.137-0.05,0.377-0.072,0.715H265.49z"/>
	<path fill="#010202" d="M276.725,22.633h-1.772v-5.356c0-0.439-0.076-0.805-0.232-1.099c-0.154-0.293-0.364-0.51-0.63-0.649
		c-0.267-0.137-0.567-0.207-0.906-0.207c-0.532,0-0.968,0.166-1.308,0.495c-0.342,0.33-0.513,0.817-0.513,1.459v5.356h-1.772V13.84
		h1.737v0.888c0.294-0.325,0.646-0.571,1.06-0.742c0.413-0.17,0.84-0.255,1.28-0.255c0.897,0,1.62,0.269,2.168,0.805
		c0.594,0.57,0.891,1.396,0.891,2.473v5.625H276.725z"/>
	<path fill="#010202" d="M283.121,22.633h-1.06c-0.52,0-0.961-0.111-1.325-0.338c-0.364-0.227-0.637-0.523-0.818-0.894
		c-0.18-0.371-0.271-0.776-0.271-1.217v-4.838h-1.001v-1.355h1.001v-2.668h1.771v2.668h1.703v1.355h-1.703V20.1
		c0,0.683,0.325,1.024,0.974,1.024h0.729V22.633z"/>
	<path fill="#010202" d="M291.551,14.572l-1.34,1.335c-0.202-0.209-0.397-0.358-0.584-0.45c-0.186-0.09-0.429-0.135-0.729-0.135
		c-0.317,0-0.609,0.081-0.876,0.244c-0.269,0.166-0.482,0.395-0.641,0.691c-0.158,0.297-0.236,0.642-0.236,1.037v5.339h-1.772V13.84
		h1.737v0.955c0.232-0.323,0.559-0.582,0.979-0.775c0.421-0.193,0.875-0.29,1.361-0.29c0.434,0,0.816,0.063,1.146,0.191
		C290.929,14.049,291.246,14.268,291.551,14.572z"/>
	<path fill="#010202" d="M299.996,18.745h-5.709c0,0.515,0.087,0.954,0.263,1.318c0.175,0.364,0.427,0.646,0.758,0.847
		c0.331,0.201,0.738,0.3,1.224,0.3c0.484,0,0.877-0.068,1.178-0.203c0.3-0.136,0.618-0.368,0.957-0.695l1.128,1.05
		c-0.48,0.48-0.968,0.829-1.46,1.048c-0.491,0.217-1.104,0.324-1.84,0.324c-0.566,0-1.091-0.081-1.573-0.244
		c-0.483-0.165-0.904-0.424-1.262-0.781c-0.355-0.356-0.632-0.82-0.83-1.398c-0.198-0.577-0.298-1.27-0.298-2.083
		c0-0.944,0.154-1.751,0.462-2.423c0.309-0.672,0.741-1.186,1.301-1.542c0.561-0.355,1.217-0.535,1.97-0.535
		c0.769,0,1.436,0.179,2.002,0.535c0.564,0.355,0.993,0.855,1.289,1.495c0.294,0.642,0.439,1.377,0.439,2.208v0.779H299.996z
		 M298.242,17.517c-0.017-0.458-0.096-0.856-0.236-1.194c-0.141-0.34-0.362-0.61-0.665-0.815c-0.302-0.203-0.66-0.304-1.07-0.304
		c-0.408,0-0.765,0.102-1.072,0.304c-0.308,0.205-0.536,0.475-0.682,0.815c-0.078,0.18-0.131,0.34-0.156,0.479
		c-0.025,0.137-0.05,0.377-0.072,0.715H298.242z"/>
</g>
</svg>
